<?xml version="1.0" encoding="utf-8"?>
<!-- Generator: Adobe Illustrator 25.2.1, SVG Export Plug-In . SVG Version: 6.00 Build 0)  -->
<svg version="1.1" xmlns="http://www.w3.org/2000/svg" xmlns:xlink="http://www.w3.org/1999/xlink" x="0px" y="0px"
	 viewBox="0 0 1000 400" style="enable-background:new 0 0 1000 400;" xml:space="preserve">
<style type="text/css">
	.st0{fill:#FFFFFF;}
	.st1{font-family:'Helvetica-Light';}
	.st2{font-size:55px;}
	.st3{letter-spacing:1;}
	.st4{font-size:23px;}
	.st5{fill:#999999;}
	.st6{font-size:36px;}
	.st7{fill:#FF3300;}
	.st8{fill:#666666;}
	.st9{font-size:11px;}
	.st10{fill:#E9C52B;}
	.st11{fill:#1D1F1E;}
	.st12{fill:#CC0C2E;}
	.st13{fill:#11799F;}
	.st14{fill:#FFFFFF;stroke:#000000;stroke-width:2;stroke-miterlimit:10;}
	.st15{fill:#FFFFFF;stroke:#000000;stroke-miterlimit:10;}
</style>
<g id="bg_x5F_rectangle">
	<rect class="st0" width="1000" height="400"/>
</g>
<g id="text_x5F_pieces">
	<text transform="matrix(1 0 0 1 16.5039 233.9004)" class="st1 st2 st3">JOBKEEPER EMPLOYEE RETENTION</text>
	<text transform="matrix(1 0 0 1 870.2004 354.2997)" class="st1 st4">12.04.2021</text>
	<text transform="matrix(1 0 0 1 13.8187 291.3903)" class="st5 st1 st6">INSIGHTS TEAM</text>
	<text transform="matrix(1 0 0 1 15.2184 354.3002)" class="st7 st1 st4">OFFICIAL INTERNAL USE ONLY - DRAFT</text>
	<text transform="matrix(1 0 0 1 80.6897 373.6092)" class="st8 st1 st9">2383934f150ab1fa5b37f50a75fb5bd0fd505a64</text>
	<text transform="matrix(1 0 0 1 14.9998 373.6088)" class="st1 st9">git commit:</text>
</g>
<g id="color_x5F_rectangles">
	<rect x="457" y="97" class="st10" width="72" height="64"/>
	<rect x="332" y="97" class="st11" width="72" height="64"/>
	<rect x="86" y="97" class="st11" width="72" height="64"/>
	<rect x="223" y="97" class="st12" width="72" height="64"/>
	<rect x="15" y="97" class="st13" width="72" height="64"/>
	<rect x="223" y="20" class="st5" width="72" height="64"/>
</g>
<g id="lines">
	<line class="st14" x1="17.7" y1="8.1" x2="980.9" y2="8.1"/>
	<line class="st15" x1="17.7" y1="394.1" x2="980.9" y2="394.1"/>
</g>
</svg>
