<svg xmlns="http://www.w3.org/2000/svg" xmlns:xlink="http://www.w3.org/1999/xlink" version="1.1" x="0px" y="0px" viewBox="0 0 1000 400" style="enable-background:new 0 0 1000 400;" xml:space="preserve">
  <style type="text/css">

.sz0{fill:#FFFFFF;}
.sz1{font-family:'Helvetica-Light';}
.sz2{font-size:55px;}
.sz3{letter-spacing:1;}
.sz4{font-size:23px;}
.sz5{fill:#999999;}
.sz6{font-size:36px;}
.sz7{fill:#FF3300;}
.sz8{fill:#666666;}
.sz9{font-size:11px;}
.sz10{fill:#E9C52B;}
.sz11{fill:#1D1F1E;}
.sz12{fill:#CC0C2E;}
.sz13{fill:#11799F;}
.sz14{fill:#FFFFFF;stroke:#000000;stroke-width:2;stroke-miterlimit:10;}
.sz15{fill:#FFFFFF;stroke:#000000;stroke-miterlimit:10;}
.sz13{fill:#000000;}

</style>
  <g id="bg_rectangle">
    <rect class="sz0" x="0" y="0" width="1000" height="400"/>
  </g>
  <g id="text_items">
    <text transform="matrix(1 0 0 1 16.5039 233.9004)" class="sz1 sz2 sz3">JOBKEEPER EMPLOYEE RETENTION</text>
    <text transform="matrix(1 0 0 1 870.2004 354.2997)" class="sz1 sz4">12.04.2021</text>
    <text transform="matrix(1 0 0 1 13.8187 291.3903)" class="sz1 sz5 sz6">INSIGHTS TEAM</text>
    <text transform="matrix(1 0 0 1 15.2184 354.3002)" class="sz1 sz4 sz7">OFFICIAL INTERNAL USE ONLY - DRAFT</text>
    <text transform="matrix(1 0 0 1 80.6897 373.6092)" class="sz1 sz9 sz8">2383934f150ab1fa5b37f50a75fb5bd0fd505a64</text>
    <text transform="matrix(1 0 0 1 14.9998 373.6088)" class="sz1 sz9 sz13">git commit:</text>
  </g>
  <g id="coloured_rectangles">
    <rect x="457" y="97" class="sz10" width="72" height="64"/>
    <rect x="332" y="97" class="sz11" width="72" height="64"/>
    <rect x="86" y="97" class="sz11" width="72" height="64"/>
    <rect x="223" y="97" class="sz12" width="72" height="64"/>
    <rect x="15" y="97" class="sz13" width="72" height="64"/>
    <rect x="223" y="20" class="sz5" width="72" height="64"/>
  </g>
  <g id="les_lignes">
    <line class="sz14" x1="17.7" y1="8.1" x2="980.9" y2="8.1"/>
    <line class="sz15" x1="17.7" y1="394.1" x2="980.9" y2="394.1"/>
  </g>
</svg>
