<?xml version="1.0" encoding="utf-8"?>
<!-- Generator: Adobe Illustrator 23.0.2, SVG Export Plug-In . SVG Version: 6.00 Build 0)  -->
<svg version="1.1" xmlns="http://www.w3.org/2000/svg" xmlns:xlink="http://www.w3.org/1999/xlink" x="0px" y="0px"
	 viewBox="0 0 880 347" style="enable-background:new 0 0 880 347;" xml:space="preserve">
<style type="text/css">
	.st0{display:none;}
	.st1{fill:#999999;}
	.st2{fill:#11799F;}
	.st3{fill:#CC0C2E;}
	.st4{fill:#E9C52B;}
	.st5{fill:#1D1F1E;}
	.st6{fill:#666666;}
	.st7{fill:#FF0000;}
</style>
<g id="Layer_1" class="st0">
	
		<image style="display:inline;overflow:visible;" width="1098" height="1302" xlink:href="../../../Downloads/Screen Shot 2021-03-22 at 4.35.11 pm.png"  transform="matrix(0.6982 0 0 0.6982 -107 -318)">
	</image>
</g>
<g id="Layer_3">
	<rect x="223" y="20" class="st1" width="72" height="64"/>
	<rect x="15" y="97" class="st2" width="72" height="64"/>
	<rect x="223" y="97" class="st3" width="72" height="64"/>
	<rect x="457" y="97" class="st4" width="72" height="64"/>
	<rect x="332" y="97" class="st5" width="72" height="64"/>
	<rect x="86" y="97" class="st5" width="72" height="64"/>
	<g>
		<path d="M31.3,197.5v26.3c0,1.9-0.2,3.5-0.6,4.8c-0.4,1.4-1,2.5-1.8,3.4c-0.8,0.9-1.9,1.5-3.3,2c-1.3,0.4-3,0.7-5,0.7
			c-2.1,0-3.8-0.3-5.1-1c-1.3-0.7-2.4-1.6-3.1-2.8c-0.7-1.1-1.3-2.5-1.5-4c-0.3-1.5-0.4-3-0.4-4.6H14c0,0.8,0.1,1.7,0.2,2.8
			c0.1,1.1,0.3,2.1,0.7,3.1c0.4,1,1.1,1.8,2,2.5c0.9,0.7,2.3,1,4.1,1c1.4,0,2.5-0.2,3.4-0.5c0.9-0.4,1.6-0.9,2.1-1.7
			c0.5-0.8,0.9-1.7,1.1-2.9c0.2-1.2,0.3-2.6,0.3-4.3v-24.8H31.3z"/>
		<path d="M37.7,208.5c0.7-2.3,1.8-4.3,3.2-6c1.4-1.8,3.2-3.1,5.4-4.2c2.2-1,4.7-1.6,7.5-1.6s5.4,0.5,7.5,1.6c2.1,1,3.9,2.4,5.4,4.2
			c1.4,1.8,2.5,3.8,3.2,6c0.7,2.3,1.1,4.7,1.1,7.2c0,2.5-0.4,4.9-1.1,7.2c-0.7,2.3-1.8,4.3-3.2,6c-1.4,1.7-3.2,3.1-5.4,4.2
			c-2.1,1-4.6,1.6-7.5,1.6s-5.4-0.5-7.5-1.6c-2.2-1-4-2.4-5.4-4.2c-1.4-1.7-2.5-3.7-3.2-6c-0.7-2.3-1.1-4.7-1.1-7.2
			C36.7,213.2,37,210.8,37.7,208.5z M40.9,221.5c0.5,1.9,1.3,3.6,2.4,5.2c1.1,1.5,2.5,2.7,4.3,3.6c1.7,0.9,3.8,1.4,6.2,1.4
			c2.4,0,4.5-0.5,6.2-1.4c1.7-0.9,3.1-2.1,4.2-3.6c1.1-1.5,1.9-3.2,2.4-5.2c0.5-1.9,0.8-3.9,0.8-5.8c0-2-0.3-4-0.8-5.9
			c-0.5-1.9-1.3-3.6-2.4-5.1c-1.1-1.5-2.5-2.7-4.2-3.6c-1.7-0.9-3.8-1.4-6.2-1.4c-2.4,0-4.5,0.5-6.2,1.4c-1.7,0.9-3.2,2.1-4.3,3.6
			c-1.1,1.5-1.9,3.2-2.4,5.1c-0.5,1.9-0.8,3.9-0.8,5.9C40.1,217.7,40.4,219.6,40.9,221.5z"/>
		<path d="M91.8,197.5c1.5,0,3,0.1,4.4,0.4c1.4,0.3,2.7,0.8,3.7,1.5c1.1,0.7,1.9,1.6,2.6,2.8c0.6,1.1,1,2.6,1,4.3
			c0,1-0.2,1.9-0.5,2.8c-0.3,0.9-0.7,1.7-1.3,2.4c-0.6,0.7-1.2,1.4-2,1.9c-0.8,0.5-1.6,0.9-2.6,1.1v0.1c2.3,0.3,4.2,1.3,5.6,2.9
			c1.4,1.6,2.1,3.6,2.1,6c0,0.6-0.1,1.2-0.2,2c-0.1,0.7-0.3,1.5-0.6,2.2c-0.3,0.8-0.7,1.5-1.3,2.3c-0.6,0.7-1.4,1.4-2.3,2
			c-1,0.6-2.2,1-3.6,1.4c-1.4,0.4-3.1,0.5-5.1,0.5H76.4v-36.4H91.8z M91.8,213.4c1.4,0,2.6-0.2,3.6-0.5c1-0.3,1.9-0.8,2.6-1.3
			c0.7-0.6,1.2-1.2,1.5-2c0.3-0.7,0.5-1.5,0.5-2.4c0-4.6-2.7-6.8-8.2-6.8H79.9v13H91.8z M91.8,230.9c1.3,0,2.5-0.1,3.7-0.3
			c1.2-0.2,2.2-0.6,3.1-1.2c0.9-0.6,1.6-1.4,2.1-2.3c0.5-1,0.8-2.2,0.8-3.6c0-2.3-0.8-4.1-2.5-5.3c-1.6-1.2-4-1.8-7.1-1.8H79.9v14.5
			H91.8z"/>
		<path d="M113.9,197.5v19.6l21.2-19.6h4.7l-16.3,15l17,21.4H136l-15.1-19l-7,6.5v12.5h-3.5v-36.4H113.9z"/>
		<path d="M168.6,197.5v3h-21.7v13.2h20.3v3h-20.3v14.4h21.9v3h-25.4v-36.4H168.6z"/>
		<path d="M198.8,197.5v3h-21.7v13.2h20.3v3h-20.3v14.4h21.9v3h-25.4v-36.4H198.8z"/>
		<path d="M220.1,197.5c1.6,0,3.1,0.2,4.4,0.7c1.3,0.5,2.5,1.1,3.4,2c1,0.9,1.7,2,2.2,3.3c0.5,1.3,0.8,2.8,0.8,4.4
			c0,1.6-0.3,3.1-0.8,4.4c-0.5,1.3-1.2,2.4-2.2,3.3c-1,0.9-2.1,1.6-3.4,2c-1.3,0.5-2.8,0.7-4.4,0.7h-12.7v15.6h-3.5v-36.4H220.1z
			 M219.3,215.3c2.4,0,4.4-0.6,5.9-1.8c1.5-1.2,2.2-3.1,2.2-5.6s-0.7-4.4-2.2-5.6c-1.5-1.2-3.5-1.8-5.9-1.8h-11.9v14.9H219.3z"/>
		<path d="M261.2,197.5v3h-21.7v13.2h20.3v3h-20.3v14.4h21.9v3h-25.4v-36.4H261.2z"/>
		<path d="M283,197.5c1.5,0,2.9,0.2,4.3,0.6c1.3,0.4,2.5,0.9,3.5,1.7c1,0.8,1.8,1.8,2.4,3c0.6,1.2,0.9,2.6,0.9,4.3
			c0,2.3-0.6,4.3-1.8,6c-1.2,1.7-3,2.8-5.3,3.3v0.1c1.2,0.2,2.2,0.5,3,0.9c0.8,0.5,1.4,1,1.9,1.8c0.5,0.7,0.8,1.5,1.1,2.5
			c0.2,0.9,0.4,1.9,0.4,3c0,0.6,0.1,1.4,0.1,2.2c0,0.9,0.1,1.8,0.2,2.7c0.1,0.9,0.3,1.8,0.5,2.6c0.2,0.8,0.5,1.4,0.9,1.9h-3.8
			c-0.2-0.3-0.4-0.8-0.5-1.2c-0.1-0.5-0.2-1-0.3-1.5c-0.1-0.5-0.1-1-0.1-1.6c0-0.5-0.1-1-0.1-1.3c-0.1-1.3-0.2-2.6-0.3-3.9
			c-0.2-1.3-0.5-2.4-1-3.4c-0.5-1-1.2-1.8-2.1-2.4c-0.9-0.6-2.2-0.9-3.9-0.8h-13.2v16.2h-3.5v-36.4H283z M282.7,214.8
			c1.1,0,2.1-0.2,3-0.5c1-0.3,1.8-0.8,2.5-1.4c0.7-0.6,1.3-1.4,1.7-2.2c0.4-0.9,0.6-1.9,0.6-3c0-2.2-0.6-4-1.9-5.3
			c-1.3-1.3-3.3-1.9-5.9-1.9h-13v14.3H282.7z"/>
		<path d="M339.7,197.5v3H318v13.2h20.3v3H318v14.4h21.9v3h-25.4v-36.4H339.7z"/>
		<path d="M349.8,197.5l12.1,31.9l12.5-31.9h5.1v36.4H376v-31.5h-0.1l-12.4,31.5h-3.3l-12-31.5h-0.1v31.5h-3.5v-36.4H349.8z"/>
		<path d="M402.8,197.5c1.6,0,3.1,0.2,4.4,0.7c1.3,0.5,2.5,1.1,3.4,2c1,0.9,1.7,2,2.2,3.3c0.5,1.3,0.8,2.8,0.8,4.4
			c0,1.6-0.3,3.1-0.8,4.4c-0.5,1.3-1.2,2.4-2.2,3.3c-1,0.9-2.1,1.6-3.4,2c-1.3,0.5-2.8,0.7-4.4,0.7h-12.7v15.6h-3.5v-36.4H402.8z
			 M402,215.3c2.4,0,4.4-0.6,5.9-1.8c1.5-1.2,2.2-3.1,2.2-5.6s-0.7-4.4-2.2-5.6c-1.5-1.2-3.5-1.8-5.9-1.8h-11.9v14.9H402z"/>
		<path d="M422.2,197.5v33.5h20.4v3h-23.9v-36.4H422.2z"/>
		<path d="M445.3,208.5c0.7-2.3,1.8-4.3,3.2-6c1.4-1.8,3.2-3.1,5.4-4.2c2.2-1,4.7-1.6,7.5-1.6s5.4,0.5,7.5,1.6
			c2.1,1,3.9,2.4,5.4,4.2c1.4,1.8,2.5,3.8,3.2,6c0.7,2.3,1.1,4.7,1.1,7.2c0,2.5-0.4,4.9-1.1,7.2c-0.7,2.3-1.8,4.3-3.2,6
			c-1.4,1.7-3.2,3.1-5.4,4.2c-2.1,1-4.6,1.6-7.5,1.6s-5.4-0.5-7.5-1.6c-2.2-1-4-2.4-5.4-4.2c-1.4-1.7-2.5-3.7-3.2-6
			c-0.7-2.3-1.1-4.7-1.1-7.2C444.2,213.2,444.6,210.8,445.3,208.5z M448.5,221.5c0.5,1.9,1.3,3.6,2.4,5.2c1.1,1.5,2.5,2.7,4.3,3.6
			c1.7,0.9,3.8,1.4,6.2,1.4c2.4,0,4.5-0.5,6.2-1.4c1.7-0.9,3.1-2.1,4.2-3.6c1.1-1.5,1.9-3.2,2.4-5.2c0.5-1.9,0.8-3.9,0.8-5.8
			c0-2-0.3-4-0.8-5.9c-0.5-1.9-1.3-3.6-2.4-5.1c-1.1-1.5-2.5-2.7-4.2-3.6c-1.7-0.9-3.8-1.4-6.2-1.4c-2.4,0-4.5,0.5-6.2,1.4
			c-1.7,0.9-3.2,2.1-4.3,3.6c-1.1,1.5-1.9,3.2-2.4,5.1c-0.5,1.9-0.8,3.9-0.8,5.9C447.7,217.7,447.9,219.6,448.5,221.5z"/>
		<path d="M479.8,197.5h4.1l12,18.5l11.9-18.5h4.1l-14.4,21.4v15h-3.5v-15L479.8,197.5z"/>
		<path d="M540.2,197.5v3h-21.7v13.2h20.3v3h-20.3v14.4h21.9v3h-25.4v-36.4H540.2z"/>
		<path d="M570.5,197.5v3h-21.7v13.2h20.3v3h-20.3v14.4h21.9v3h-25.4v-36.4H570.5z"/>
		<path d="M606.4,197.5c1.5,0,2.9,0.2,4.3,0.6c1.3,0.4,2.5,0.9,3.5,1.7c1,0.8,1.8,1.8,2.4,3c0.6,1.2,0.9,2.6,0.9,4.3
			c0,2.3-0.6,4.3-1.8,6c-1.2,1.7-3,2.8-5.3,3.3v0.1c1.2,0.2,2.2,0.5,3,0.9c0.8,0.5,1.4,1,1.9,1.8c0.5,0.7,0.8,1.5,1.1,2.5
			c0.2,0.9,0.4,1.9,0.4,3c0,0.6,0.1,1.4,0.1,2.2c0,0.9,0.1,1.8,0.2,2.7c0.1,0.9,0.3,1.8,0.5,2.6c0.2,0.8,0.5,1.4,0.9,1.9h-3.8
			c-0.2-0.3-0.4-0.8-0.5-1.2c-0.1-0.5-0.2-1-0.3-1.5c-0.1-0.5-0.1-1-0.1-1.6c0-0.5-0.1-1-0.1-1.3c-0.1-1.3-0.2-2.6-0.3-3.9
			c-0.2-1.3-0.5-2.4-1-3.4c-0.5-1-1.2-1.8-2.1-2.4c-0.9-0.6-2.2-0.9-3.9-0.8h-13.2v16.2h-3.5v-36.4H606.4z M606.2,214.8
			c1.1,0,2.1-0.2,3-0.5c1-0.3,1.8-0.8,2.5-1.4c0.7-0.6,1.3-1.4,1.7-2.2c0.4-0.9,0.6-1.9,0.6-3c0-2.2-0.6-4-1.9-5.3
			c-1.3-1.3-3.3-1.9-5.9-1.9h-13v14.3H606.2z"/>
		<path d="M648.9,197.5v3h-21.7v13.2h20.3v3h-20.3v14.4h21.9v3h-25.4v-36.4H648.9z"/>
		<path d="M679,197.5v3h-12.7v33.5h-3.5v-33.5h-12.6v-3H679z"/>
		<path d="M707.5,197.5v3h-21.7v13.2h20.3v3h-20.3v14.4h21.9v3h-25.4v-36.4H707.5z"/>
		<path d="M716.4,197.5l21.2,30.8h0.1v-30.8h3.5v36.4h-3.9l-21.2-30.8H716v30.8h-3.5v-36.4H716.4z"/>
		<path d="M773.5,197.5v3h-12.7v33.5h-3.5v-33.5h-12.6v-3H773.5z"/>
		<path d="M780.6,197.5v36.4h-3.5v-36.4H780.6z"/>
		<path d="M787.3,208.5c0.7-2.3,1.8-4.3,3.2-6c1.4-1.8,3.2-3.1,5.4-4.2c2.2-1,4.7-1.6,7.5-1.6c2.9,0,5.4,0.5,7.5,1.6
			c2.1,1,3.9,2.4,5.4,4.2c1.4,1.8,2.5,3.8,3.2,6c0.7,2.3,1.1,4.7,1.1,7.2c0,2.5-0.4,4.9-1.1,7.2c-0.7,2.3-1.8,4.3-3.2,6
			c-1.4,1.7-3.2,3.1-5.4,4.2c-2.1,1-4.6,1.6-7.5,1.6c-2.9,0-5.4-0.5-7.5-1.6c-2.2-1-4-2.4-5.4-4.2c-1.4-1.7-2.5-3.7-3.2-6
			c-0.7-2.3-1.1-4.7-1.1-7.2C786.3,213.2,786.6,210.8,787.3,208.5z M790.5,221.5c0.5,1.9,1.3,3.6,2.4,5.2c1.1,1.5,2.5,2.7,4.3,3.6
			c1.7,0.9,3.8,1.4,6.2,1.4s4.5-0.5,6.2-1.4s3.1-2.1,4.2-3.6c1.1-1.5,1.9-3.2,2.4-5.2c0.5-1.9,0.8-3.9,0.8-5.8c0-2-0.3-4-0.8-5.9
			c-0.5-1.9-1.3-3.6-2.4-5.1c-1.1-1.5-2.5-2.7-4.2-3.6c-1.7-0.9-3.8-1.4-6.2-1.4s-4.5,0.5-6.2,1.4c-1.7,0.9-3.2,2.1-4.3,3.6
			c-1.1,1.5-1.9,3.2-2.4,5.1c-0.5,1.9-0.8,3.9-0.8,5.9C789.7,217.7,790,219.6,790.5,221.5z"/>
		<path d="M829.8,197.5l21.2,30.8h0.1v-30.8h3.5v36.4h-3.9l-21.2-30.8h-0.1v30.8h-3.5v-36.4H829.8z"/>
	</g>
	<g>
		<path class="st6" d="M11.9,260h1.7v27.8h-1.7V260z"/>
		<path class="st6" d="M18.5,260h2.1l17.6,25.5h0.1V260H40v27.8h-2l-17.7-25.7h-0.1v25.7h-1.7V260z"/>
		<path class="st6" d="M63.1,268c-0.1-1.2-0.3-2.2-0.8-3.1c-0.5-0.9-1.1-1.6-1.9-2.2c-0.8-0.6-1.7-1-2.8-1.3
			c-1.1-0.3-2.3-0.4-3.5-0.4c-0.8,0-1.6,0.1-2.5,0.3c-0.9,0.2-1.7,0.5-2.5,1c-0.8,0.5-1.4,1.1-1.9,1.8c-0.5,0.8-0.7,1.7-0.7,2.9
			c0,1.1,0.3,2,0.8,2.7c0.5,0.7,1.3,1.3,2.1,1.7c0.9,0.4,1.9,0.8,3,1c1.1,0.3,2.3,0.5,3.5,0.7c1.2,0.2,2.4,0.5,3.5,0.8
			c1.1,0.3,2.1,0.8,3,1.3s1.6,1.3,2.2,2.2s0.8,2,0.8,3.4c0,1.5-0.3,2.7-0.9,3.7c-0.6,1-1.4,1.8-2.4,2.4c-0.9,0.6-2,1.1-3.2,1.3
			c-1.2,0.3-2.3,0.4-3.3,0.4c-1.6,0-3.2-0.2-4.6-0.5c-1.4-0.4-2.7-0.9-3.7-1.7c-1.1-0.8-1.9-1.8-2.5-3.1c-0.6-1.2-0.9-2.8-0.9-4.6
			h1.7c-0.1,1.5,0.1,2.8,0.7,3.9c0.5,1.1,1.2,1.9,2.2,2.6c0.9,0.7,2,1.2,3.3,1.5c1.2,0.3,2.6,0.4,3.9,0.4c0.8,0,1.7-0.1,2.7-0.3
			c0.9-0.2,1.8-0.6,2.6-1.1c0.8-0.5,1.5-1.1,2-1.9c0.5-0.8,0.8-1.8,0.8-3c0-1.2-0.3-2.1-0.8-2.9c-0.5-0.7-1.3-1.3-2.2-1.8
			c-0.9-0.5-1.9-0.8-3-1.1c-1.1-0.3-2.3-0.5-3.5-0.8c-1.2-0.2-2.3-0.5-3.5-0.8c-1.1-0.3-2.2-0.7-3-1.3c-0.9-0.5-1.6-1.2-2.1-2.1
			c-0.5-0.8-0.8-1.9-0.8-3.3c0-1.3,0.3-2.5,0.8-3.4c0.6-0.9,1.3-1.7,2.2-2.3s1.9-1,3-1.3c1.1-0.3,2.2-0.4,3.3-0.4
			c1.5,0,2.8,0.2,4.1,0.5c1.3,0.3,2.4,0.8,3.3,1.5c0.9,0.7,1.7,1.6,2.3,2.7c0.6,1.1,0.9,2.4,1,3.9H63.1z"/>
		<path class="st6" d="M69.5,260h1.7v27.8h-1.7V260z"/>
		<path class="st6" d="M75.1,274.1c0-2,0.3-3.9,0.9-5.6c0.6-1.8,1.4-3.3,2.6-4.7c1.1-1.4,2.5-2.4,4.1-3.2c1.6-0.8,3.5-1.2,5.6-1.2
			c1.4,0,2.8,0.2,4.1,0.6c1.3,0.4,2.5,1,3.5,1.8c1,0.8,1.9,1.8,2.6,2.9c0.7,1.1,1.2,2.4,1.4,3.9h-1.6c-0.6-2.4-1.8-4.4-3.5-5.7
			c-1.7-1.4-3.8-2.1-6.4-2.1c-1.9,0-3.5,0.4-5,1.1c-1.4,0.7-2.6,1.7-3.6,2.9c-1,1.2-1.7,2.6-2.2,4.2c-0.5,1.6-0.7,3.3-0.7,5
			c0,1.8,0.2,3.4,0.7,5c0.5,1.6,1.2,2.9,2.1,4.1c0.9,1.2,2.1,2.1,3.6,2.8c1.4,0.7,3.1,1,5,1c1.7,0,3.2-0.3,4.5-0.8
			c1.3-0.5,2.5-1.3,3.4-2.3c0.9-1,1.6-2.2,2.1-3.6c0.5-1.4,0.7-2.9,0.6-4.7H88.6v-1.5h11.7v13.6h-1.5V282h-0.1
			c-0.3,1-0.8,1.9-1.5,2.7c-0.7,0.8-1.5,1.5-2.4,2.1c-0.9,0.6-2,1-3.1,1.3c-1.1,0.3-2.3,0.5-3.5,0.5c-2.1,0-4-0.4-5.6-1.1
			c-1.6-0.8-3-1.8-4.1-3.1c-1.1-1.3-2-2.8-2.5-4.6C75.4,278,75.1,276.1,75.1,274.1z"/>
		<path class="st6" d="M105.1,260h1.7v12.6h17.8V260h1.7v27.8h-1.7v-13.7h-17.8v13.7h-1.7V260z"/>
		<path class="st6" d="M128.2,261.5V260h21.3v1.5h-9.8v26.4H138v-26.4H128.2z"/>
		<path class="st6" d="M169.1,268c-0.1-1.2-0.3-2.2-0.8-3.1c-0.5-0.9-1.1-1.6-1.9-2.2c-0.8-0.6-1.7-1-2.8-1.3
			c-1.1-0.3-2.3-0.4-3.5-0.4c-0.8,0-1.6,0.1-2.5,0.3c-0.9,0.2-1.7,0.5-2.5,1c-0.8,0.5-1.4,1.1-1.9,1.8c-0.5,0.8-0.7,1.7-0.7,2.9
			c0,1.1,0.3,2,0.8,2.7c0.5,0.7,1.3,1.3,2.1,1.7c0.9,0.4,1.9,0.8,3,1c1.1,0.3,2.3,0.5,3.5,0.7c1.2,0.2,2.4,0.5,3.5,0.8
			c1.1,0.3,2.1,0.8,3,1.3s1.6,1.3,2.2,2.2s0.8,2,0.8,3.4c0,1.5-0.3,2.7-0.9,3.7c-0.6,1-1.4,1.8-2.4,2.4c-0.9,0.6-2,1.1-3.2,1.3
			c-1.2,0.3-2.3,0.4-3.3,0.4c-1.6,0-3.2-0.2-4.6-0.5c-1.4-0.4-2.7-0.9-3.7-1.7c-1.1-0.8-1.9-1.8-2.5-3.1c-0.6-1.2-0.9-2.8-0.9-4.6
			h1.7c-0.1,1.5,0.1,2.8,0.7,3.9c0.5,1.1,1.2,1.9,2.2,2.6c0.9,0.7,2,1.2,3.3,1.5c1.2,0.3,2.6,0.4,3.9,0.4c0.8,0,1.7-0.1,2.7-0.3
			c0.9-0.2,1.8-0.6,2.6-1.1c0.8-0.5,1.5-1.1,2-1.9c0.5-0.8,0.8-1.8,0.8-3c0-1.2-0.3-2.1-0.8-2.9c-0.5-0.7-1.3-1.3-2.2-1.8
			c-0.9-0.5-1.9-0.8-3-1.1c-1.1-0.3-2.3-0.5-3.5-0.8c-1.2-0.2-2.3-0.5-3.5-0.8c-1.1-0.3-2.2-0.7-3-1.3c-0.9-0.5-1.6-1.2-2.1-2.1
			c-0.5-0.8-0.8-1.9-0.8-3.3c0-1.3,0.3-2.5,0.8-3.4c0.6-0.9,1.3-1.7,2.2-2.3s1.9-1,3-1.3c1.1-0.3,2.2-0.4,3.3-0.4
			c1.5,0,2.8,0.2,4.1,0.5c1.3,0.3,2.4,0.8,3.3,1.5c0.9,0.7,1.7,1.6,2.3,2.7c0.6,1.1,0.9,2.4,1,3.9H169.1z"/>
		<path class="st6" d="M183.4,261.5V260h21.3v1.5h-9.8v26.4h-1.7v-26.4H183.4z"/>
		<path class="st6" d="M206.6,260h18.7v1.5h-17v11.2h16v1.5h-16v12.2h17.2v1.5h-18.9V260z"/>
		<path class="st6" d="M236.7,260h1.9l11,27.8h-1.8l-3.5-8.9h-13.3l-3.5,8.9h-1.8L236.7,260z M243.7,277.5l-6-15.8h-0.1l-6.2,15.8
			H243.7z"/>
		<path class="st6" d="M251.6,260h2.5l10.9,25.9h0.1l10.8-25.9h2.5v27.8h-1.7v-25.7h-0.1l-10.6,25.7h-1.7l-10.7-25.7h-0.1v25.7h-1.7
			V260z"/>
	</g>
	<g>
		<path class="st7" d="M10.8,321.9c0.3-1.1,0.8-2,1.5-2.8s1.5-1.5,2.5-2c1-0.5,2.2-0.7,3.5-0.7c1.3,0,2.5,0.2,3.5,0.7
			c1,0.5,1.8,1.1,2.5,2c0.7,0.8,1.2,1.8,1.5,2.8c0.3,1.1,0.5,2.2,0.5,3.4s-0.2,2.3-0.5,3.4c-0.3,1.1-0.8,2-1.5,2.8
			c-0.7,0.8-1.5,1.5-2.5,2c-1,0.5-2.2,0.7-3.5,0.7c-1.3,0-2.5-0.2-3.5-0.7s-1.9-1.1-2.5-2s-1.2-1.8-1.5-2.8
			c-0.3-1.1-0.5-2.2-0.5-3.4S10.4,323,10.8,321.9z M12.3,328.1c0.2,0.9,0.6,1.7,1.2,2.4c0.5,0.7,1.2,1.3,2,1.7
			c0.8,0.4,1.8,0.6,2.9,0.6s2.1-0.2,2.9-0.6c0.8-0.4,1.5-1,2-1.7c0.5-0.7,0.9-1.5,1.2-2.4s0.4-1.8,0.4-2.7c0-0.9-0.1-1.9-0.4-2.8
			c-0.2-0.9-0.6-1.7-1.2-2.4c-0.5-0.7-1.2-1.3-2-1.7s-1.8-0.6-2.9-0.6s-2.1,0.2-2.9,0.6s-1.5,1-2,1.7c-0.5,0.7-0.9,1.5-1.2,2.4
			c-0.2,0.9-0.4,1.8-0.4,2.8C11.9,326.3,12,327.2,12.3,328.1z"/>
		<path class="st7" d="M39.8,316.8v1.4h-9.2v6.2h8.2v1.4h-8.2v8.2h-1.6v-17.1H39.8z"/>
		<path class="st7" d="M52.7,316.8v1.4h-9.2v6.2h8.2v1.4h-8.2v8.2h-1.6v-17.1H52.7z"/>
		<path class="st7" d="M56.5,316.8v17.1h-1.6v-17.1H56.5z"/>
		<path class="st7" d="M71.9,320.2c-0.3-0.5-0.7-1-1.2-1.3c-0.5-0.4-1-0.6-1.6-0.8c-0.6-0.2-1.2-0.3-1.8-0.3c-1.1,0-2.1,0.2-2.9,0.6
			c-0.8,0.4-1.5,1-2,1.7c-0.5,0.7-0.9,1.5-1.2,2.4c-0.2,0.9-0.4,1.8-0.4,2.8c0,0.9,0.1,1.8,0.4,2.7s0.6,1.7,1.2,2.4s1.2,1.3,2,1.7
			c0.8,0.4,1.8,0.6,2.9,0.6c0.8,0,1.5-0.1,2.2-0.4c0.6-0.3,1.2-0.7,1.7-1.2c0.5-0.5,0.8-1.1,1.1-1.7s0.5-1.4,0.6-2.1h1.6
			c-0.1,1.1-0.4,2-0.7,2.9c-0.4,0.8-0.9,1.6-1.5,2.2c-0.6,0.6-1.3,1-2.1,1.4c-0.8,0.3-1.7,0.5-2.7,0.5c-1.3,0-2.5-0.2-3.5-0.7
			s-1.9-1.1-2.5-2c-0.7-0.8-1.2-1.8-1.5-2.8c-0.3-1.1-0.5-2.2-0.5-3.4s0.2-2.3,0.5-3.4c0.3-1.1,0.8-2,1.5-2.8c0.7-0.8,1.5-1.5,2.5-2
			c1-0.5,2.2-0.7,3.5-0.7c0.8,0,1.6,0.1,2.4,0.4c0.8,0.2,1.5,0.6,2.1,1.1c0.6,0.5,1.2,1.1,1.6,1.7c0.4,0.7,0.7,1.5,0.8,2.4h-1.6
			C72.4,321.3,72.2,320.7,71.9,320.2z"/>
		<path class="st7" d="M78.7,316.8v17.1h-1.6v-17.1H78.7z"/>
		<path class="st7" d="M89.1,316.8l6.7,17.1h-1.8l-2.1-5.3h-7.8l-2.1,5.3h-1.7l6.9-17.1H89.1z M91.4,327.2l-3.3-8.8l-3.4,8.8H91.4z"
			/>
		<path class="st7" d="M99,316.8v15.7h9.6v1.4H97.4v-17.1H99z"/>
		<path class="st7" d="M118.7,316.8v17.1h-1.6v-17.1H118.7z"/>
		<path class="st7" d="M124.1,316.8l10,14.5h0v-14.5h1.6v17.1h-1.8l-10-14.5h0v14.5h-1.6v-17.1H124.1z"/>
		<path class="st7" d="M150.9,316.8v1.4h-6v15.7h-1.6v-15.7h-6v-1.4H150.9z"/>
		<path class="st7" d="M164.4,316.8v1.4h-10.2v6.2h9.6v1.4h-9.6v6.8h10.3v1.4h-12v-17.1H164.4z"/>
		<path class="st7" d="M174.6,316.8c0.7,0,1.4,0.1,2,0.3c0.6,0.2,1.2,0.4,1.7,0.8c0.5,0.4,0.8,0.8,1.1,1.4s0.4,1.2,0.4,2
			c0,1.1-0.3,2-0.8,2.8c-0.6,0.8-1.4,1.3-2.5,1.5v0c0.6,0.1,1,0.2,1.4,0.4s0.7,0.5,0.9,0.8c0.2,0.3,0.4,0.7,0.5,1.2
			c0.1,0.4,0.2,0.9,0.2,1.4c0,0.3,0,0.6,0,1.1c0,0.4,0,0.8,0.1,1.3c0,0.4,0.1,0.8,0.2,1.2s0.2,0.7,0.4,0.9h-1.8
			c-0.1-0.2-0.2-0.4-0.2-0.6s-0.1-0.5-0.1-0.7c0-0.2,0-0.5-0.1-0.7c0-0.2,0-0.4,0-0.6c0-0.6-0.1-1.2-0.2-1.8
			c-0.1-0.6-0.2-1.1-0.5-1.6c-0.2-0.5-0.6-0.9-1-1.1s-1-0.4-1.8-0.4h-6.2v7.6h-1.6v-17.1H174.6z M174.5,324.9c0.5,0,1-0.1,1.4-0.2
			c0.4-0.2,0.8-0.4,1.2-0.7c0.3-0.3,0.6-0.6,0.8-1c0.2-0.4,0.3-0.9,0.3-1.4c0-1.1-0.3-1.9-0.9-2.5c-0.6-0.6-1.5-0.9-2.8-0.9h-6.1
			v6.7H174.5z"/>
		<path class="st7" d="M184.6,316.8l10,14.5h0v-14.5h1.6v17.1h-1.8l-10-14.5h0v14.5h-1.6v-17.1H184.6z"/>
		<path class="st7" d="M206.5,316.8l6.7,17.1h-1.8l-2.1-5.3h-7.8l-2.1,5.3h-1.7l6.9-17.1H206.5z M208.8,327.2l-3.3-8.8l-3.4,8.8
			H208.8z"/>
		<path class="st7" d="M216.4,316.8v15.7h9.6v1.4h-11.2v-17.1H216.4z"/>
		<path class="st7" d="M235.8,316.8v10.6c0,1,0.1,1.8,0.3,2.5c0.2,0.7,0.6,1.3,1,1.7c0.4,0.4,1,0.8,1.6,1c0.6,0.2,1.3,0.3,2.1,0.3
			c0.8,0,1.5-0.1,2.1-0.3c0.6-0.2,1.2-0.5,1.6-1c0.4-0.4,0.8-1,1-1.7c0.2-0.7,0.3-1.5,0.3-2.5v-10.6h1.6v11c0,0.9-0.1,1.7-0.4,2.5
			s-0.6,1.5-1.2,2.1c-0.5,0.6-1.2,1.1-2.1,1.4c-0.8,0.3-1.9,0.5-3.1,0.5c-1.2,0-2.2-0.2-3-0.5c-0.8-0.3-1.5-0.8-2.1-1.4
			c-0.5-0.6-0.9-1.3-1.2-2.1c-0.2-0.8-0.4-1.6-0.4-2.5v-11H235.8z"/>
		<path class="st7" d="M251.9,330.5c0.3,0.6,0.7,1.1,1.2,1.4c0.5,0.4,1.1,0.6,1.8,0.8c0.7,0.2,1.4,0.2,2.2,0.2
			c0.4,0,0.9-0.1,1.5-0.2c0.5-0.1,1-0.3,1.5-0.6c0.5-0.3,0.8-0.6,1.1-1.1c0.3-0.4,0.5-1,0.5-1.6c0-0.5-0.1-0.9-0.3-1.2
			c-0.2-0.4-0.5-0.6-0.8-0.9c-0.3-0.2-0.7-0.4-1.1-0.6s-0.8-0.3-1.2-0.4l-3.8-0.9c-0.5-0.1-1-0.3-1.5-0.5c-0.5-0.2-0.9-0.4-1.2-0.8
			c-0.4-0.3-0.6-0.7-0.9-1.2c-0.2-0.5-0.3-1-0.3-1.7c0-0.4,0.1-0.9,0.2-1.5c0.2-0.6,0.5-1.1,0.9-1.6c0.4-0.5,1-0.9,1.8-1.3
			c0.8-0.3,1.8-0.5,3-0.5c0.8,0,1.7,0.1,2.4,0.3c0.8,0.2,1.4,0.6,2,1c0.6,0.4,1,1,1.4,1.7c0.3,0.7,0.5,1.4,0.5,2.3h-1.6
			c0-0.7-0.2-1.2-0.4-1.7s-0.6-0.9-1-1.2c-0.4-0.3-0.9-0.6-1.5-0.7c-0.6-0.2-1.1-0.3-1.7-0.3c-0.6,0-1.1,0.1-1.6,0.2
			c-0.5,0.1-1,0.3-1.4,0.6c-0.4,0.3-0.7,0.6-0.9,1c-0.2,0.4-0.4,1-0.4,1.6c0,0.4,0.1,0.7,0.2,1c0.1,0.3,0.3,0.5,0.6,0.8
			c0.2,0.2,0.5,0.4,0.8,0.5c0.3,0.1,0.6,0.2,1,0.3l4.2,1c0.6,0.2,1.2,0.4,1.7,0.6c0.5,0.2,1,0.5,1.4,0.9c0.4,0.3,0.7,0.8,1,1.3
			c0.2,0.5,0.3,1.1,0.3,1.8c0,0.2,0,0.4-0.1,0.8c0,0.3-0.1,0.7-0.3,1c-0.2,0.4-0.4,0.7-0.6,1.1s-0.7,0.7-1.2,1
			c-0.5,0.3-1.1,0.5-1.8,0.7c-0.7,0.2-1.6,0.3-2.6,0.3c-1,0-1.9-0.1-2.8-0.3c-0.9-0.2-1.6-0.6-2.2-1.1c-0.6-0.5-1.1-1.1-1.4-1.8
			c-0.3-0.8-0.5-1.7-0.4-2.7h1.6C251.5,329.1,251.7,329.9,251.9,330.5z"/>
		<path class="st7" d="M277.7,316.8v1.4h-10.2v6.2h9.6v1.4h-9.6v6.8h10.3v1.4h-12v-17.1H277.7z"/>
		<path class="st7" d="M286.4,321.9c0.3-1.1,0.8-2,1.5-2.8s1.5-1.5,2.5-2c1-0.5,2.2-0.7,3.5-0.7c1.3,0,2.5,0.2,3.5,0.7
			c1,0.5,1.8,1.1,2.5,2c0.7,0.8,1.2,1.8,1.5,2.8c0.3,1.1,0.5,2.2,0.5,3.4s-0.2,2.3-0.5,3.4c-0.3,1.1-0.8,2-1.5,2.8
			c-0.7,0.8-1.5,1.5-2.5,2c-1,0.5-2.2,0.7-3.5,0.7c-1.3,0-2.5-0.2-3.5-0.7s-1.9-1.1-2.5-2s-1.2-1.8-1.5-2.8
			c-0.3-1.1-0.5-2.2-0.5-3.4S286.1,323,286.4,321.9z M287.9,328.1c0.2,0.9,0.6,1.7,1.2,2.4c0.5,0.7,1.2,1.3,2,1.7
			c0.8,0.4,1.8,0.6,2.9,0.6s2.1-0.2,2.9-0.6c0.8-0.4,1.5-1,2-1.7c0.5-0.7,0.9-1.5,1.2-2.4s0.4-1.8,0.4-2.7c0-0.9-0.1-1.9-0.4-2.8
			c-0.2-0.9-0.6-1.7-1.2-2.4c-0.5-0.7-1.2-1.3-2-1.7s-1.8-0.6-2.9-0.6s-2.1,0.2-2.9,0.6s-1.5,1-2,1.7c-0.5,0.7-0.9,1.5-1.2,2.4
			c-0.2,0.9-0.4,1.8-0.4,2.8C287.5,326.3,287.6,327.2,287.9,328.1z"/>
		<path class="st7" d="M306.4,316.8l10,14.5h0v-14.5h1.6v17.1h-1.8l-10-14.5h0v14.5h-1.6v-17.1H306.4z"/>
		<path class="st7" d="M323.1,316.8v15.7h9.6v1.4h-11.2v-17.1H323.1z"/>
		<path class="st7" d="M329.8,316.8h1.9l5.6,8.7l5.6-8.7h1.9l-6.8,10.1v7.1h-1.6v-7.1L329.8,316.8z"/>
		<path class="st7" d="M352.7,326.6h6v1.4h-6V326.6z"/>
		<path class="st7" d="M374.5,316.8c2.6,0.1,4.6,0.8,5.9,2.2c1.3,1.4,2,3.5,2,6.4c0,2.8-0.7,5-2,6.4c-1.3,1.4-3.3,2.1-5.9,2.2h-5.9
			v-17.1H374.5z M373.7,332.5c1.2,0,2.3-0.1,3.2-0.4c0.9-0.3,1.6-0.7,2.2-1.3c0.6-0.6,1-1.3,1.3-2.2c0.3-0.9,0.4-2,0.4-3.3
			c0-1.3-0.1-2.4-0.4-3.3s-0.7-1.7-1.3-2.2c-0.6-0.6-1.3-1-2.2-1.3c-0.9-0.3-1.9-0.4-3.2-0.4h-3.5v14.4H373.7z"/>
		<path class="st7" d="M392.9,316.8c0.7,0,1.4,0.1,2,0.3c0.6,0.2,1.2,0.4,1.7,0.8c0.5,0.4,0.8,0.8,1.1,1.4s0.4,1.2,0.4,2
			c0,1.1-0.3,2-0.8,2.8c-0.6,0.8-1.4,1.3-2.5,1.5v0c0.6,0.1,1,0.2,1.4,0.4s0.7,0.5,0.9,0.8c0.2,0.3,0.4,0.7,0.5,1.2
			c0.1,0.4,0.2,0.9,0.2,1.4c0,0.3,0,0.6,0,1.1c0,0.4,0,0.8,0.1,1.3c0,0.4,0.1,0.8,0.2,1.2s0.2,0.7,0.4,0.9h-1.8
			c-0.1-0.2-0.2-0.4-0.2-0.6s-0.1-0.5-0.1-0.7c0-0.2,0-0.5-0.1-0.7c0-0.2,0-0.4,0-0.6c0-0.6-0.1-1.2-0.2-1.8
			c-0.1-0.6-0.2-1.1-0.5-1.6c-0.2-0.5-0.6-0.9-1-1.1s-1-0.4-1.8-0.4h-6.2v7.6H385v-17.1H392.9z M392.8,324.9c0.5,0,1-0.1,1.4-0.2
			c0.4-0.2,0.8-0.4,1.2-0.7c0.3-0.3,0.6-0.6,0.8-1c0.2-0.4,0.3-0.9,0.3-1.4c0-1.1-0.3-1.9-0.9-2.5c-0.6-0.6-1.5-0.9-2.8-0.9h-6.1
			v6.7H392.8z"/>
		<path class="st7" d="M407.9,316.8l6.7,17.1h-1.8l-2.1-5.3H403l-2.1,5.3h-1.7l6.9-17.1H407.9z M410.2,327.2l-3.3-8.8l-3.4,8.8
			H410.2z"/>
		<path class="st7" d="M427,316.8v1.4h-9.2v6.2h8.2v1.4h-8.2v8.2h-1.6v-17.1H427z"/>
		<path class="st7" d="M440.8,316.8v1.4h-6v15.7h-1.6v-15.7h-6v-1.4H440.8z"/>
	</g>
	<g>
		<path class="st6" d="M744.5,320.2c0.5-0.1,1-0.2,1.4-0.4s0.7-0.5,1-0.9c0.3-0.4,0.5-1,0.6-1.8h1.2v16.8h-1.5v-12.5h-4.4v-1.1
			C743.4,320.3,744,320.3,744.5,320.2z"/>
		<path class="st6" d="M764.8,323.5c-0.5,0.6-1.2,1.1-2,1.4v0c1.1,0.2,2,0.7,2.5,1.5c0.6,0.7,0.9,1.7,0.9,2.8c0,0.8-0.2,1.6-0.5,2.2
			c-0.3,0.6-0.7,1.2-1.2,1.6c-0.5,0.4-1.1,0.7-1.8,0.9c-0.7,0.2-1.4,0.3-2.2,0.3c-0.8,0-1.5-0.1-2.2-0.3c-0.7-0.2-1.3-0.5-1.8-0.9
			c-0.5-0.4-0.9-0.9-1.2-1.6c-0.3-0.6-0.5-1.4-0.5-2.2c0-1.1,0.3-2,0.9-2.8c0.6-0.8,1.4-1.3,2.5-1.5v0c-0.9-0.3-1.6-0.7-2-1.4
			c-0.5-0.6-0.7-1.4-0.7-2.3c0-0.7,0.1-1.3,0.4-1.9c0.3-0.5,0.7-1,1.2-1.3s1-0.6,1.6-0.8s1.2-0.3,1.8-0.3c0.6,0,1.2,0.1,1.8,0.3
			s1.2,0.4,1.6,0.8s0.9,0.8,1.2,1.3c0.3,0.5,0.4,1.2,0.4,1.9C765.5,322.1,765.3,322.8,764.8,323.5z M762.1,332.8
			c0.5-0.2,1-0.4,1.4-0.7c0.4-0.3,0.7-0.7,0.9-1.2c0.2-0.5,0.3-1,0.3-1.7c0-0.6-0.1-1.1-0.3-1.6c-0.2-0.5-0.5-0.8-0.9-1.2
			c-0.4-0.3-0.8-0.5-1.4-0.7c-0.5-0.2-1.1-0.2-1.6-0.2c-0.6,0-1.1,0-1.6,0.2c-0.5,0.1-1,0.4-1.4,0.7s-0.7,0.7-0.9,1.2
			c-0.2,0.5-0.3,1-0.3,1.6c0,0.6,0.1,1.2,0.3,1.7c0.2,0.5,0.5,0.9,0.9,1.2c0.4,0.3,0.8,0.5,1.4,0.7c0.5,0.2,1.1,0.2,1.7,0.2
			S761.6,332.9,762.1,332.8z M761.8,324.1c0.4-0.1,0.8-0.3,1.1-0.6c0.3-0.3,0.6-0.6,0.8-1c0.2-0.4,0.3-0.9,0.3-1.4
			c0-0.5-0.1-0.9-0.3-1.3c-0.2-0.4-0.4-0.7-0.8-0.9c-0.3-0.2-0.7-0.4-1.1-0.6c-0.4-0.1-0.9-0.2-1.4-0.2c-0.5,0-0.9,0.1-1.3,0.2
			c-0.4,0.1-0.8,0.3-1.2,0.6c-0.3,0.2-0.6,0.5-0.8,0.9c-0.2,0.4-0.3,0.8-0.3,1.3c0,0.6,0.1,1,0.3,1.4c0.2,0.4,0.5,0.7,0.8,1
			s0.7,0.4,1.2,0.6c0.4,0.1,0.9,0.2,1.3,0.1C760.9,324.3,761.4,324.2,761.8,324.1z"/>
		<path class="st6" d="M769.4,331.3h2v2.5h-2V331.3z"/>
		<path class="st6" d="M783.5,317.8c0.8,0.5,1.4,1.2,1.8,2.1s0.7,1.8,0.9,2.8c0.2,1,0.2,2,0.2,3c0,1-0.1,2-0.2,3
			c-0.2,1-0.4,2-0.9,2.8c-0.4,0.8-1,1.5-1.8,2c-0.8,0.5-1.8,0.8-3,0.8c-1.2,0-2.2-0.3-3-0.8s-1.4-1.2-1.8-2
			c-0.4-0.8-0.7-1.8-0.9-2.8s-0.2-2-0.2-3c0-1,0.1-2,0.2-3c0.2-1,0.4-2,0.9-2.8c0.4-0.8,1-1.5,1.8-2.1c0.8-0.5,1.8-0.8,3-0.8
			C781.7,316.9,782.7,317.2,783.5,317.8z M778.2,319c-0.6,0.5-1,1.1-1.3,1.8c-0.3,0.7-0.5,1.5-0.6,2.4c-0.1,0.9-0.1,1.7-0.1,2.4
			c0,0.7,0,1.5,0.1,2.4c0.1,0.9,0.3,1.7,0.6,2.4c0.3,0.7,0.7,1.4,1.3,1.9s1.3,0.7,2.3,0.7c1,0,1.7-0.2,2.3-0.7
			c0.6-0.5,1-1.1,1.3-1.9c0.3-0.7,0.5-1.5,0.6-2.4s0.1-1.7,0.1-2.4c0-0.7,0-1.5-0.1-2.4c-0.1-0.9-0.3-1.7-0.6-2.4
			c-0.3-0.7-0.7-1.4-1.3-1.8c-0.6-0.5-1.3-0.7-2.3-0.7C779.5,318.2,778.7,318.5,778.2,319z"/>
		<path class="st6" d="M788,333.9c0-0.8,0.2-1.6,0.4-2.2c0.3-0.6,0.6-1.2,1.1-1.7c0.4-0.5,1-1,1.5-1.4c0.6-0.4,1.1-0.8,1.7-1.2
			c0.6-0.4,1.2-0.8,1.8-1.2c0.6-0.4,1.1-0.8,1.6-1.3s0.8-0.9,1-1.4c0.2-0.5,0.3-1.1,0.3-1.7c0-0.5-0.1-1-0.3-1.5s-0.5-0.8-0.8-1.1
			c-0.3-0.3-0.7-0.5-1.2-0.7c-0.5-0.2-0.9-0.2-1.5-0.2c-0.7,0-1.3,0.1-1.8,0.4c-0.5,0.3-0.9,0.6-1.2,1c-0.3,0.4-0.5,0.9-0.7,1.5
			c-0.1,0.6-0.2,1.2-0.2,1.8h-1.5c0-0.9,0.1-1.7,0.3-2.4c0.2-0.7,0.5-1.4,1-1.9c0.4-0.5,1-0.9,1.7-1.2c0.7-0.3,1.5-0.4,2.4-0.4
			c0.7,0,1.4,0.1,2.1,0.3c0.6,0.2,1.2,0.5,1.7,0.9c0.5,0.4,0.8,0.9,1.1,1.5s0.4,1.3,0.4,2.1c0,0.7-0.1,1.3-0.3,1.9
			c-0.2,0.6-0.5,1.1-0.9,1.6c-0.4,0.5-0.8,0.9-1.3,1.3c-0.5,0.4-1,0.8-1.6,1.1c-0.4,0.3-0.9,0.6-1.4,0.9s-1.1,0.7-1.6,1.1
			c-0.5,0.4-0.9,0.8-1.3,1.3c-0.4,0.5-0.6,1-0.7,1.5h9.3v1.4H788z"/>
		<path class="st6" d="M802.8,331.3h2v2.5h-2V331.3z"/>
		<path class="st6" d="M808,333.9c0-0.8,0.2-1.6,0.4-2.2c0.3-0.6,0.6-1.2,1.1-1.7c0.4-0.5,1-1,1.5-1.4c0.6-0.4,1.1-0.8,1.7-1.2
			c0.6-0.4,1.2-0.8,1.8-1.2c0.6-0.4,1.1-0.8,1.6-1.3s0.8-0.9,1-1.4c0.2-0.5,0.3-1.1,0.3-1.7c0-0.5-0.1-1-0.3-1.5s-0.5-0.8-0.8-1.1
			c-0.3-0.3-0.7-0.5-1.2-0.7c-0.5-0.2-0.9-0.2-1.5-0.2c-0.7,0-1.3,0.1-1.8,0.4c-0.5,0.3-0.9,0.6-1.2,1c-0.3,0.4-0.5,0.9-0.7,1.5
			c-0.1,0.6-0.2,1.2-0.2,1.8h-1.5c0-0.9,0.1-1.7,0.3-2.4c0.2-0.7,0.5-1.4,1-1.9c0.4-0.5,1-0.9,1.7-1.2c0.7-0.3,1.5-0.4,2.4-0.4
			c0.7,0,1.4,0.1,2.1,0.3c0.6,0.2,1.2,0.5,1.7,0.9c0.5,0.4,0.8,0.9,1.1,1.5s0.4,1.3,0.4,2.1c0,0.7-0.1,1.3-0.3,1.9
			c-0.2,0.6-0.5,1.1-0.9,1.6c-0.4,0.5-0.8,0.9-1.3,1.3c-0.5,0.4-1,0.8-1.6,1.1c-0.4,0.3-0.9,0.6-1.4,0.9s-1.1,0.7-1.6,1.1
			c-0.5,0.4-0.9,0.8-1.3,1.3c-0.4,0.5-0.6,1-0.7,1.5h9.3v1.4H808z"/>
		<path class="st6" d="M830.2,317.8c0.8,0.5,1.4,1.2,1.8,2.1c0.4,0.8,0.7,1.8,0.9,2.8c0.2,1,0.2,2,0.2,3c0,1-0.1,2-0.2,3
			c-0.2,1-0.4,2-0.9,2.8c-0.4,0.8-1,1.5-1.8,2s-1.8,0.8-3,0.8c-1.2,0-2.2-0.3-3-0.8c-0.8-0.5-1.4-1.2-1.8-2
			c-0.4-0.8-0.7-1.8-0.9-2.8c-0.2-1-0.2-2-0.2-3c0-1,0.1-2,0.2-3c0.2-1,0.4-2,0.9-2.8s1-1.5,1.8-2.1c0.8-0.5,1.8-0.8,3-0.8
			C828.4,316.9,829.4,317.2,830.2,317.8z M824.9,319c-0.6,0.5-1,1.1-1.3,1.8c-0.3,0.7-0.5,1.5-0.6,2.4c-0.1,0.9-0.1,1.7-0.1,2.4
			c0,0.7,0,1.5,0.1,2.4s0.3,1.7,0.6,2.4c0.3,0.7,0.7,1.4,1.3,1.9c0.6,0.5,1.3,0.7,2.3,0.7c1,0,1.7-0.2,2.3-0.7s1-1.1,1.3-1.9
			c0.3-0.7,0.5-1.5,0.6-2.4c0.1-0.9,0.1-1.7,0.1-2.4c0-0.7,0-1.5-0.1-2.4c-0.1-0.9-0.3-1.7-0.6-2.4c-0.3-0.7-0.7-1.4-1.3-1.8
			c-0.6-0.5-1.3-0.7-2.3-0.7C826.2,318.2,825.4,318.5,824.9,319z"/>
		<path class="st6" d="M834.7,333.9c0-0.8,0.2-1.6,0.4-2.2c0.3-0.6,0.6-1.2,1.1-1.7c0.4-0.5,1-1,1.5-1.4s1.1-0.8,1.7-1.2
			s1.2-0.8,1.8-1.2c0.6-0.4,1.1-0.8,1.6-1.3c0.5-0.5,0.8-0.9,1-1.4c0.2-0.5,0.3-1.1,0.3-1.7c0-0.5-0.1-1-0.3-1.5
			c-0.2-0.4-0.5-0.8-0.8-1.1c-0.3-0.3-0.7-0.5-1.2-0.7c-0.5-0.2-0.9-0.2-1.5-0.2c-0.7,0-1.3,0.1-1.8,0.4c-0.5,0.3-0.9,0.6-1.2,1
			c-0.3,0.4-0.5,0.9-0.7,1.5c-0.1,0.6-0.2,1.2-0.2,1.8h-1.5c0-0.9,0.1-1.7,0.3-2.4c0.2-0.7,0.5-1.4,1-1.9c0.4-0.5,1-0.9,1.7-1.2
			c0.7-0.3,1.5-0.4,2.4-0.4c0.7,0,1.4,0.1,2.1,0.3c0.6,0.2,1.2,0.5,1.7,0.9c0.5,0.4,0.8,0.9,1.1,1.5s0.4,1.3,0.4,2.1
			c0,0.7-0.1,1.3-0.3,1.9c-0.2,0.6-0.5,1.1-0.9,1.6c-0.4,0.5-0.8,0.9-1.3,1.3c-0.5,0.4-1,0.8-1.6,1.1c-0.4,0.3-0.9,0.6-1.4,0.9
			s-1.1,0.7-1.6,1.1c-0.5,0.4-0.9,0.8-1.3,1.3c-0.4,0.5-0.6,1-0.7,1.5h9.3v1.4H834.7z"/>
		<path class="st6" d="M851.3,320.2c0.5-0.1,1-0.2,1.4-0.4s0.7-0.5,1-0.9c0.3-0.4,0.5-1,0.6-1.8h1.2v16.8H854v-12.5h-4.4v-1.1
			C850.2,320.3,850.8,320.3,851.3,320.2z"/>
	</g>
</g>
<g id="Layer_2">
</g>
</svg>
