<?xml version="1.0" encoding="utf-8"?>
<!-- Generator: Adobe Illustrator 24.3.0, SVG Export Plug-In . SVG Version: 6.00 Build 0)  -->
<svg version="1.1" xmlns="http://www.w3.org/2000/svg" xmlns:xlink="http://www.w3.org/1999/xlink" x="0px" y="0px"
	 viewBox="0 0 1223.1 905.8" style="enable-background:new 0 0 1223.1 905.8;" xml:space="preserve">
<style type="text/css">
	.st0{fill:#FFFFFF;}
	.st1{fill:#FFF933;stroke:#000000;stroke-width:0.571;stroke-miterlimit:10;}
	.st2{stroke:#000000;stroke-width:0.571;stroke-miterlimit:10;}
	.st3{fill:none;}
	.st4{fill:#999999;}
	.st5{font-family:'Helvetica-Light';}
	.st6{font-size:16px;}
	.st7{fill:#FF0000;}
	.st8{fill:#337DB4;}
	.st9{fill:#020202;}
	.st10{fill:none;stroke:#FFFFFF;stroke-width:3;stroke-miterlimit:10;}
	.st11{font-family:'Helvetica';}
	.st12{font-size:39px;}
	.st13{fill:#FFFFFF;stroke:#000000;stroke-miterlimit:10;}
	.st14{fill:#FF00CC;}
	.st15{font-size:21px;}
	.st16{fill:#CC0000;}
	.st17{font-size:36px;}
	.st18{font-size:20px;}
</style>
<g id="background_x5F_rectangle">
	<rect x="0" y="5.1" class="st0" width="1223.1" height="895.7"/>
</g>
<g id="warning_x5F_symbol">
	<path class="st1" d="M36.5,830.2l-25.6,43.5c-2.5,4.3,0.6,9.7,5.7,9.7h51.1c5.1,0,8.2-5.4,5.7-9.7l-25.6-43.5
		C45.3,825.9,39,825.9,36.5,830.2z"/>
	<path class="st2" d="M42.4,875.9h-0.8c-1.6,0-3-1.3-3-2.9l0,0c0-1.6,1.3-2.9,3-2.9h0.8c1.6,0,3,1.3,3,2.9l0,0
		C45.3,874.5,44,875.9,42.4,875.9z"/>
	<path class="st2" d="M42,867.9L42,867.9c-1.9,0-3.5-1.5-3.5-3.4V844c0-1.9,1.5-3.4,3.5-3.4l0,0c1.9,0,3.5,1.5,3.5,3.4v20.5
		C45.3,866.4,43.8,867.9,42,867.9z"/>
</g>
<g id="new_text_x5F_starting_x5F_point">
</g>
<g id="disclaimer_x5F_text">
	<rect x="114.2" y="844.4" class="st3" width="735.1" height="47"/>
	<text transform="matrix(1.0183 0 0 1 114.1582 855.917)"><tspan x="0" y="0" class="st4 st5 st6">Rounding errors. Some the totals above may be slightly different to the underlying detail. This is be</tspan><tspan x="704.2" y="0" class="st4 st5 st6">-</tspan><tspan x="0" y="19.2" class="st4 st5 st6">cause the numbers are displayed using only two decimal places rather than their full precision.</tspan></text>
</g>
<g id="rectangles_1_">
	<rect id="step_x5F_4_x5F_red" x="649.9" y="645.2" class="st7" width="120.4" height="120"/>
	<rect id="step_x5F_4_x5F_blue" x="413.1" y="645.2" class="st8" width="237.8" height="120"/>
	<rect id="step_x5F_3_x5F_red" x="770.3" y="437.2" class="st7" width="111.5" height="120"/>
	<rect id="step_x5F_3_x5F_blue" x="413.1" y="437.2" class="st8" width="357.2" height="120"/>
	<rect id="step_x5F_2_x5F_red" x="881.3" y="230.2" class="st7" width="326.4" height="120"/>
	<rect id="step_x5F_2_x5F_blue" x="413.1" y="230.2" class="st8" width="468.7" height="120"/>
	<rect id="step_x5F_1" x="413.1" y="23.2" class="st9" width="796.1" height="120"/>
</g>
<g id="white_x5F_top_x5F_arrows">
</g>
<g id="arrow_x5F_top_x5F_left">
	<polygon class="st0" points="459.7,70.7 439.9,82.2 459.7,93.7 	"/>
	<line class="st10" x1="612.1" y1="82.2" x2="456.5" y2="82.2"/>
</g>
<g id="arrow_x5F_top_x5F_right">
	<polygon class="st0" points="1168.4,93.7 1188.3,82.2 1168.4,70.7 	"/>
	<line class="st10" x1="1016.1" y1="82.2" x2="1171.8" y2="82.2"/>
</g>
<g id="rectangle_x5F_text">
	<text transform="matrix(1 0 0 1 676.2523 712.2469)" class="st0 st11 st12">0.45</text>
	<text transform="matrix(1 0 0 1 474.5903 712.2468)" class="st0 st11 st12">0.89 M</text>
	<text transform="matrix(1 0 0 1 791.6534 505.9075)" class="st0 st11 st12">0.42</text>
	<text transform="matrix(1 0 0 1 532.5903 505.9073)" class="st0 st11 st12">1.34 M</text>
	<text transform="matrix(1 0 0 1 985.5903 296.9078)" class="st0 st11 st12">1.20 M</text>
	<text transform="matrix(1 0 0 1 588.5901 296.9075)" class="st0 st11 st12">1.77 M</text>
	<text transform="matrix(1 0 0 1 648.4478 92.5786)" class="st0 st11 st12">2.96 million people</text>
</g>
<g id="down_x5F_arrows">
	<line class="st13" x1="881.5" y1="357.8" x2="881.5" y2="424.6"/>
	<polygon class="st14" points="876.5,422.1 881.5,430.8 886.5,422.1 	"/>
	<line class="st13" x1="770.2" y1="565.6" x2="770.2" y2="632.4"/>
	<polygon points="765.2,629.9 770.2,638.6 775.2,629.9 	"/>
</g>
<g id="rectangle_x5F_comments">
	<text transform="matrix(1 0 0 1 411.8057 379.6733)" class="st5 st15">STP record in December</text>
	<text transform="matrix(1 0 0 1 894.6696 379.6734)" class="st16 st5 st15">No STP record in December</text>
	<text transform="matrix(1 0 0 1 776.8792 590.0461)" class="st5 st15">Multiple jobs</text>
	<text transform="matrix(1 0 0 1 413.3852 590.0463)" class="st5 st15">One job in both periods</text>
	<text transform="matrix(1 0 0 1 413.0571 797.5519)" class="st5 st15">Industry changers</text>
	<text transform="matrix(1 0 0 1 652.5934 797.5519)" class="st5 st15">Same industry</text>
</g>
<g id="step_x5F_headings">
	<rect x="7.7" y="644.6" class="st3" width="348.5" height="46"/>
	<text transform="matrix(1 0 0 1 7.6582 670.4501)" class="st11 st17">4. Industry changers</text>
	<rect x="7.7" y="437.6" class="st3" width="348.5" height="46"/>
	<text transform="matrix(1 0 0 1 7.6582 463.4501)" class="st11 st17">3. One pair of jobs</text>
	<rect x="7.7" y="230.6" class="st3" width="348.5" height="46"/>
	<text transform="matrix(1 0 0 1 7.6582 256.4501)" class="st11 st17">2. In December STP</text>
	<rect x="7.7" y="23.6" class="st3" width="348.5" height="46"/>
	<text transform="matrix(1 0 0 1 7.6582 49.4501)" class="st11 st17">1. Starting point</text>
</g>
<g id="text_x5F_detail_x5F_1">
	<rect x="8.5" y="79" class="st3" width="356.6" height="79.8"/>
	<text transform="matrix(1 0 0 1 8.52 93.4038)"><tspan x="0" y="0" class="st5 st18">Jobs that existed in February but not in </tspan><tspan x="0" y="24" class="st5 st18">December. 3.26 million jobs distributed </tspan><tspan x="0" y="48" class="st5 st18">between 2.96 million people.</tspan></text>
</g>
<g id="text_x5F_detail_x5F_2">
	<rect x="8.5" y="286.3" class="st3" width="356.6" height="79.8"/>
	<text transform="matrix(1 0 0 1 8.52 300.7269)"><tspan x="0" y="0" class="st5 st18">Of the 2.96 million people, 1.77 million </tspan><tspan x="0" y="24" class="st5 st18">had a December STP record. </tspan><tspan x="0" y="48" class="st5 st18">1.20 million had no December record.</tspan></text>
</g>
<g id="text_x5F_detail_x5F_3">
	<rect x="8.5" y="492.7" class="st3" width="373.8" height="83.2"/>
	<text transform="matrix(1 0 0 1 8.52 507.0745)"><tspan x="0" y="0" class="st5 st18">0.42 million people had multiple jobs in </tspan><tspan x="0" y="24" class="st5 st18">either February or December and cannot </tspan><tspan x="0" y="48" class="st5 st18">be associated with a single industry</tspan></text>
</g>
<g id="text_x5F_detail_x5F_4">
	<rect x="8.5" y="702.2" class="st3" width="373.8" height="83.2"/>
	<text transform="matrix(1 0 0 1 8.52 716.5844)"><tspan x="0" y="0" class="st5 st18">0.89 million people changed industries </tspan><tspan x="0" y="24" class="st5 st18">while 0.45 million people remained in the </tspan><tspan x="0" y="48" class="st5 st18">same industry.</tspan></text>
</g>
</svg>
