<svg xmlns="http://www.w3.org/2000/svg" xmlns:xlink="http://www.w3.org/1999/xlink" version="1.1" x="0px" y="0px" viewBox="0 0 1223.1 905.8" style="enable-background:new 0 0 1223.1 905.8;" xml:space="preserve">
  <style type="text/css">

.sa0{fill:#FFFFFF;}
.sa1{fill:none;stroke:#000000;stroke-width:0.3732;stroke-miterlimit:10;}
.sa2{fill:#FFF933;stroke:#000000;stroke-width:0.571;stroke-miterlimit:10;}
.sa3{stroke:#000000;stroke-width:0.571;stroke-miterlimit:10;}
.st4{font-family:'Helvetica-Light';}
.st5{font-size:22px;}
.st6{font-family:'Helvetica';}
.st7{font-size:25px;}
.st8{fill:#FFFFFF;stroke:#000000;stroke-miterlimit:10;}
.sa9{fill:#FF0000;}
.sa10{fill:#337DB4;}
.sa12{fill:none;stroke:#FFFFFF;stroke-width:3;stroke-miterlimit:10;}
.sa13{font-size:39px;}
.sa20{fill:#000000;}

</style>
  <g id="background_rectangle">
    <rect class="sa0" x="0" y="0" width="1223.1" height="905.8"/>
  </g>
  <g id="warning_symbol">
    <path class="sa1" d="M27,853.8L27,853.8c-6.8,11.5,1.7,25.9,15.3,25.9l0,0c13.5,0,22-14.4,15.3-25.9l0,0C50.6,842.3,33.7,842.3,27,853.8z"/>
    <path class="sa2" d="M36.5,830.2l-25.6,43.5c-2.5,4.3,0.6,9.7,5.7,9.7h51.1c5.1,0,8.2-5.4,5.7-9.7l-25.6-43.5C45.3,825.9,39,825.9,36.5,830.2z"/>
    <path class="sa3" d="M42.4,875.9h-0.8c-1.6,0-3-1.3-3-2.9l0,0c0-1.6,1.3-2.9,3-2.9h0.8c1.6,0,3,1.3,3,2.9l0,0C45.3,874.5,44,875.9,42.4,875.9z"/>
    <path class="sa3" d="M42,867.9L42,867.9c-1.9,0-3.5-1.5-3.5-3.4V844c0-1.9,1.5-3.4,3.5-3.4l0,0c1.9,0,3.5,1.5,3.5,3.4v20.5C45.3,866.4,43.8,867.9,42,867.9z"/>
  </g>
  <g id="data_rectangles">
    <rect x="413.1" y="23.2" class="sa20" width="796.1" height="120"/>
    <rect x="413.1" y="230.2" class="sa10" width="468.7" height="120"/>
    <rect x="881.3" y="230.2" class="sa9" width="326.4" height="120"/>
    <rect x="413.1" y="437.2" class="sa10" width="357.2" height="120"/>
    <rect x="770.3" y="437.2" class="sa9" width="111.5" height="120"/>
    <rect x="413.1" y="645.2" class="sa10" width="237.8" height="120"/>
    <rect x="649.9" y="645.2" class="sa9" width="120.4" height="120"/>
  </g>
  <g id="step_1_arrows">
    <polygon class="sa0" points="459.7, 70.7 439.9, 82.2 459.7, 93.7"/>
    <line class="sa12" x1="612.1" y1="82.2" x2="456.5" y2="82.2"/>
    <polygon class="sa0" points="1168.4, 93.7 1188.3, 82.2 1168.4, 70.7"/>
    <line class="sa12" x1="1016.1" y1="82.2" x2="1171.8" y2="82.2"/>
  </g>
  <g id="rectangle_text">
    <text transform="matrix(1 0 0 1 648.4478 92.5786)" class="sa0 sa7 sa13">2.96 million people</text>
    <text transform="matrix(1 0 0 1 588.5901 296.9075)" class="sa0 sa7 sa13">1.77 M</text>
    <text transform="matrix(1 0 0 1 985.5903 296.9078)" class="sa0 sa7 sa13">1.20 M</text>
    <text transform="matrix(1 0 0 1 532.5903 505.9073)" class="sa0 sa7 sa13">1.34 M</text>
    <text transform="matrix(1 0 0 1 791.6534 505.9075)" class="sa0 sa7 sa13">0.42</text>
    <text transform="matrix(1 0 0 1 474.5903 712.2468)" class="sa0 sa7 sa13">0.89 M</text>
    <text transform="matrix(1 0 0 1 676.2523 712.2469)" class="sa0 sa7 sa13">0.45</text>
  </g>
</svg>
