<?xml version="1.0" encoding="utf-8"?>
<!-- Generator: Adobe Illustrator 25.2.1, SVG Export Plug-In . SVG Version: 6.00 Build 0)  -->
<svg version="1.1" id="Layer_1" xmlns="http://www.w3.org/2000/svg" xmlns:xlink="http://www.w3.org/1999/xlink" x="0px" y="0px"
	 viewBox="0 0 1341 520" style="enable-background:new 0 0 1341 520;" xml:space="preserve">
<style type="text/css">
	.st0{fill:#2E7CB6;}
	.st1{fill:#56B070;}
	.st2{fill:#0033CC;}
	.st3{fill:#1D354C;}
	.st4{font-family:'Helvetica-Light';}
	.st5{font-size:22px;}
	.st6{fill:none;}
	.st7{font-size:17px;}
</style>
<g id="main_x5F_venn_1_">
	<circle id="main_x5F_end_1_" class="st0" cx="392.2" cy="262.8" r="239.2"/>
	<circle id="main_x5F_start_1_" class="st1" cx="244.8" cy="262.8" r="239.2"/>
	<path class="st2" d="M484,262.8c0,106.4-69.5,196.5-165.5,227.6C222.5,459.3,153,369.2,153,262.8S222.5,66.3,318.5,35.2
		C414.5,66.3,484,156.4,484,262.8z"/>
</g>
<g id="legend">
	<path id="intersection" class="st3" d="M726.9,230c-9.2,2.5-16,11-16,21c0,9.3,5.9,17.3,14.1,20.4c9.2-2.5,16-11,16-21
		C741.1,241.1,735.2,233.1,726.9,230z"/>
	<circle id="start" class="st1" cx="724.3" cy="115" r="20"/>
	<circle id="end" class="st0" cx="755.3" cy="185" r="20"/>
	<path id="end_x5F_only" class="st0" d="M741.2,438.2c-2.3,0-4.5,0.3-6.5,0.9c8.9,3.1,15.4,11.6,15.4,21.5c0,10.3-6.9,19-16.3,21.8
		c2.3,0.8,4.8,1.2,7.4,1.2c12.6,0,22.8-10.2,22.8-22.8S753.7,438.2,741.2,438.2z"/>
	<path id="start_x5F_only" class="st1" d="M721.5,398.7c0-9.5,5.1-17.5,12.1-20.1c-1.7-0.7-3.6-1.1-5.5-1.1c-9.3,0-16.9,9.4-16.9,21
		s7.6,21,16.9,21c1.7,0,3.3-0.3,4.8-0.9C726.3,415.7,721.5,407.9,721.5,398.7z"/>
</g>
<text transform="matrix(1 0 0 1 821.5898 120.2236)" class="st4 st5">Start</text>
<text transform="matrix(1 0 0 1 821.59 189.481)" class="st4 st5">Finish</text>
<text transform="matrix(1 0 0 1 821.5897 255.1203)" class="st4 st5">Start and finish</text>
<text transform="matrix(1 0 0 1 821.5899 402.4999)" class="st4 st5">Start only</text>
<text transform="matrix(1 0 0 1 821.5901 466.6263)" class="st4 st5">Finish only</text>
<text transform="matrix(1 0 0 1 1070.9159 120.7288)" class="st4 st5">11,496,977</text>
<text transform="matrix(1 0 0 1 1070.916 189.9862)" class="st4 st5">12,337,477</text>
<text transform="matrix(1 0 0 1 1083.1482 255.6255)" class="st4 st5">8,232,398</text>
<text transform="matrix(1 0 0 1 1083.1483 403.0051)" class="st4 st5">3,264,579</text>
<text transform="matrix(1 0 0 1 1083.1484 467.1315)" class="st4 st5">4,105,079</text>
<rect x="783.7" y="24.8" class="st6" width="286.4" height="71.3"/>
<text transform="matrix(1 0 0 1 796.1094 37.061)"><tspan x="0" y="0" class="st4 st7">This is an example of a text box and </tspan><tspan x="18" y="20.4" class="st4 st7">we type in text and see what hap</tspan><tspan x="268.3" y="20.4" class="st4 st7">-</tspan><tspan x="236.2" y="40.8" class="st4 st7">pens</tspan></text>
</svg>
